Simulation
nRows=32
nColumns=15
endheader
time  TH_x TH_y TH_z SC_y  SC_z  SC_x  AC_y  AC_z  AC_x  GH_y  GH_z  GH_yy  EL_x  PS_y
1.95  0.000000  0.000000  0.000000  -30.190530884151965  9.12635556492226  17.599274365401055  55.550025559434935  12.24091390743449  7.695848781113563  52.22905545191256  59.87872752840608  -38.3398201210802  22.378413400974367  0.000000
1.989  0.000000  0.000000  0.000000  -29.925424097059487  8.783687660033507  17.221494401181904  55.4655029402346  12.021790688915363  6.9272205563786935  52.3725457133458  58.9206316890448  -37.76698774507778  22.577158815061978  0.000000
2.028  0.000000  0.000000  0.000000  -29.62847115847786  8.405815997686513  16.800016861713075  55.37972916348537  11.774950923584193  6.110429090563532  52.52622832208544  57.83879773689947  -37.22107649263315  22.776505956503676  0.000000
2.067  0.000000  0.000000  0.000000  -29.309758191437297  8.000095770597733  16.332670659325014  55.29728300716913  11.505790751213581  5.269905371170158  52.68947327725936  56.641161979301124  -36.708008283864686  22.965692109068865  0.000000
2.106  0.000000  0.000000  0.000000  -28.968744534234272  7.567799064948245  15.811439143981952  55.2228521220037  11.219134085547829  4.424309825636762  52.83554550126905  55.348539647229444  -36.18308031993432  23.129961901470207  0.000000
2.145  0.000000  0.000000  0.000000  -28.598410450504222  7.105182974935543  15.226403891686884  55.160548709874824  10.92092308654416  3.588852133555783  52.92043427965075  53.98751782997063  -35.57455096273821  23.253814496512383  0.000000
2.184  0.000000  0.000000  0.000000  -28.199057481613576  6.611089296293306  14.570421001289297  55.111390925762386  10.618192117895903  2.7787716273146224  52.9065269741657  52.580888266555306  -34.82805271492615  23.329943314752953  0.000000
2.223  0.000000  0.000000  0.000000  -27.787523262842843  6.088383133707886  13.844854223653446  55.07529654988028  10.319294630657103  2.0084315514654794  52.77710161369719  51.141397644877465  -33.929948303270976  23.366312421491838  0.000000
2.262  0.000000  0.000000  0.000000  -27.38943382662438  5.540996708459251  13.059886938970724  55.05160159606582  10.030929446195602  1.286613802498129  52.53461363961588  49.672044235610365  -32.900525617199456  23.384062604131064  0.000000
2.301  0.000000  0.000000  0.000000  -27.032078386794925  4.976404130958592  12.231652854345874  55.03993025343362  9.754284084010601  0.6181511763808074  52.1891200083975  48.17001069853453  -31.768098740744342  23.407917445053585  0.000000
2.34  0.000000  0.000000  0.000000  -26.72884662121137  4.402593150592229  11.374290752956156  55.03365700520212  9.486386239989756  0.002968430798780334  51.74284663513032  46.63243409699391  -30.536241807059387  23.459730523405693  0.000000
2.379  0.000000  0.000000  0.000000  -26.47617555407483  3.827143749236707  10.497666465317055  55.020469347250085  9.222587810704573  -0.5626530915892358  51.179954461437816  45.0586515741006  -29.168719023549905  23.557935577891527  0.000000
2.418  0.000000  0.000000  0.000000  -26.261382964132416  3.2576915967302003  9.607450299864645  54.984800253590336  8.957738298641674  -1.0833903414523893  50.47257222902316  43.45093646738855  -27.60852915342044  23.717813208098548  0.000000
2.457  0.000000  0.000000  0.000000  -26.076865574134988  2.7013047281738607  8.709217757582563  54.914964833508876  8.688459999265131  -1.563146007229014  49.59096675557893  41.81404869641809  -25.803120284684745  23.95244540914915  0.000000
2.496  0.000000  0.000000  0.000000  -25.92711625128929  2.1647753425943184  7.80957158255833  54.80629190456158  8.412357165051041  -2.0044789177850917  48.51552054761044  40.15681725197452  -23.728861558349394  24.27114942540349  0.000000
2.535  0.000000  0.000000  0.000000  -25.824949167853458  1.6522848568579334  6.916912362444927  54.66119149704604  8.12860232921461  -2.4095419049849855  47.23593522440287  38.49150801329481  -21.38935061736365  24.677541756816286  0.000000
2.574  0.000000  0.000000  0.000000  -25.778677135393572  1.1680872761169672  6.040893109653599  54.4829169362749  7.83991982826887  -2.778734295067039  45.747189655441254  36.82697792859939  -18.803200406326628  25.166783290021687  0.000000
2.613  0.000000  0.000000  0.000000  -25.786603443030806  0.7184200545242806  5.191863111293682  54.277982341094045  7.55103774622812  -3.1088343113922825  44.04670487995843  35.1665083646983  -16.008136875404464  25.71521768783646  0.000000
2.652  0.000000  0.000000  0.000000  -25.832763480665115  0.3052646379153467  4.379196854196761  54.055037275024624  7.26892644919221  -3.396810033665658  42.138612471969616  33.5089523011711  -13.063641182943543  26.276009963061796  0.000000
2.691  0.000000  0.000000  0.000000  -25.897027344150032  -0.07097203163531154  3.609916651707292  53.821056260801015  7.001174635945015  -3.641311324812532  40.038942080515845  31.851583301480552  -10.035550221913898  26.7953760765072  0.000000
2.73  0.000000  0.000000  0.000000  -25.96916904364429  -0.4064598790225998  2.890209684075651  53.57740469689256  6.754210122318723  -3.8464654087508157  37.78653317820434  30.19277438715701  -6.989656095882773  27.23069241738754  0.000000
2.769  0.000000  0.000000  0.000000  -26.05342161721511  -0.6942768446503256  2.228288530442706  53.31730487456481  6.531038490376089  -4.023738952099544  35.44183712135469  28.53440315313489  -3.982786966493216  27.556844934858844  0.000000
2.808  0.000000  0.000000  0.000000  -26.161220344756522  -0.925369295462566  1.6364702134719615  53.0271274549059  6.329842857652896  -4.193110512822214  33.084703805581036  26.88062234594529  -1.0690276590550327  27.762283968382008  0.000000
2.847  0.000000  0.000000  0.000000  -26.3025441287332  -1.0930932843628987  1.1299969095154418  52.69207301110004  6.144129960349485  -4.379501415207992  30.796991360991747  25.23665589813926  1.7035219437182407  27.842263742041116  0.000000
2.886  0.000000  0.000000  0.000000  -26.47790093673909  -1.194599308553118  0.724575290253509  52.29901798099648  5.965272402310928  -4.607663106024113  28.64704313417492  23.607543237198367  4.297141027437575  27.80326917877499  0.000000
2.925  0.000000  0.000000  0.000000  -26.68106149888958  -1.228629139246526  0.43535771330698053  51.84528547735409  5.783157877166623  -4.89754547964906  26.67615559593671  21.999780449652274  6.6927485068604025  27.66376842840774  0.000000
2.964  0.000000  0.000000  0.000000  -26.898131331660945  -1.2016067342458812  0.2745392883036906  51.34151447100937  5.588504476651338  -5.261847823258214  24.885985002304633  20.422471030824944  8.895658008569654  27.44803243738214  0.000000
3.003  0.000000  0.000000  0.000000  -27.114273308163998  -1.1299187003769422  0.2468190964863605  50.81805053347738  5.375144364994051  -5.697214594180268  23.21324750074064  18.8883488098242  10.956305530556392  27.18615179207202  0.000000
3.042  0.000000  0.000000  0.000000  -27.315250357527553  -1.038460353209673  0.34504551962882923  50.330554233976805  5.140664995753561  -6.1831448389994135  21.52504404140053  17.41631798506875  12.968532195714682  26.909952994700117  0.000000
3.081  0.000000  0.000000  0.000000  -27.491064183723857  -0.9555782837929309  0.5519878513205008  49.936730349431535  4.8867349335031935  -6.676591210985339  19.632903890606872  16.025625972163265  15.070159048070247  26.646570503804952  0.000000
3.12  0.000000  0.000000  0.000000  -27.637336201407425  -0.8986995602166918  0.8387176653489492  49.67389857706797  4.621380720656631  -7.130595095217236  17.415811849472203  14.735204521261599  17.333436092238586  26.41232546624787  0.000000
3.159  0.000000  0.000000  0.000000  -27.75848927477564  -0.8656261397608527  1.1760505123930918  49.53261835697996  4.354912520501608  -7.511309215178603  14.913895061449095  13.556006668948566  19.68841762755841  26.210195100487596  0.000000
